<mxfile host="Electron" modified="2024-05-10T23:47:53.558Z" agent="Mozilla/5.0 (Windows NT 10.0; Win64; x64) AppleWebKit/537.36 (KHTML, like Gecko) draw.io/24.2.5 Chrome/120.0.6099.109 Electron/28.1.0 Safari/537.36" etag="58yi7iLOH7igVmsYniyr" version="24.2.5" type="device">
  <diagram name="Page-1" id="3SVnAeJFZ_PDscwfVYPq">
    <mxGraphModel dx="1424" dy="826" grid="1" gridSize="10" guides="1" tooltips="1" connect="1" arrows="1" fold="1" page="1" pageScale="1" pageWidth="827" pageHeight="1169" math="0" shadow="0">
      <root>
        <mxCell id="0" />
        <mxCell id="1" parent="0" />
        <mxCell id="cD8kugt5LJVi3ykaKxLq-1" value="text == null" style="rhombus;whiteSpace=wrap;html=1;shadow=0;fontFamily=Helvetica;fontSize=12;align=center;strokeWidth=1;spacing=6;spacingTop=-4;" vertex="1" parent="1">
          <mxGeometry x="290" y="310" width="110" height="50" as="geometry" />
        </mxCell>
        <mxCell id="cD8kugt5LJVi3ykaKxLq-2" style="edgeStyle=orthogonalEdgeStyle;rounded=0;orthogonalLoop=1;jettySize=auto;html=1;endArrow=block;endFill=0;entryX=0.5;entryY=0;entryDx=0;entryDy=0;" edge="1" parent="1" source="cD8kugt5LJVi3ykaKxLq-1" target="cD8kugt5LJVi3ykaKxLq-47">
          <mxGeometry relative="1" as="geometry">
            <Array as="points">
              <mxPoint x="553" y="335" />
            </Array>
            <mxPoint x="550" y="650" as="targetPoint" />
          </mxGeometry>
        </mxCell>
        <mxCell id="cD8kugt5LJVi3ykaKxLq-3" value="true" style="edgeLabel;html=1;align=center;verticalAlign=middle;resizable=0;points=[];fontSize=15;" vertex="1" connectable="0" parent="cD8kugt5LJVi3ykaKxLq-2">
          <mxGeometry x="0.1592" y="3" relative="1" as="geometry">
            <mxPoint as="offset" />
          </mxGeometry>
        </mxCell>
        <mxCell id="cD8kugt5LJVi3ykaKxLq-4" style="edgeStyle=orthogonalEdgeStyle;rounded=0;orthogonalLoop=1;jettySize=auto;html=1;endArrow=block;endFill=0;fontSize=14;entryX=0.5;entryY=0;entryDx=0;entryDy=0;" edge="1" parent="1" source="cD8kugt5LJVi3ykaKxLq-1" target="cD8kugt5LJVi3ykaKxLq-9">
          <mxGeometry relative="1" as="geometry">
            <mxPoint x="255" y="410" as="targetPoint" />
            <Array as="points">
              <mxPoint x="256" y="330" />
              <mxPoint x="256" y="380" />
              <mxPoint x="260" y="380" />
              <mxPoint x="260" y="410" />
            </Array>
          </mxGeometry>
        </mxCell>
        <mxCell id="cD8kugt5LJVi3ykaKxLq-5" value="false" style="edgeLabel;html=1;align=center;verticalAlign=middle;resizable=0;points=[];fontSize=15;" vertex="1" connectable="0" parent="cD8kugt5LJVi3ykaKxLq-4">
          <mxGeometry x="-0.0475" y="2" relative="1" as="geometry">
            <mxPoint as="offset" />
          </mxGeometry>
        </mxCell>
        <mxCell id="cD8kugt5LJVi3ykaKxLq-6" value="Start" style="rounded=1;whiteSpace=wrap;html=1;fontSize=12;glass=0;strokeWidth=1;shadow=0;" vertex="1" parent="1">
          <mxGeometry x="285" y="230" width="120" height="40" as="geometry" />
        </mxCell>
        <mxCell id="cD8kugt5LJVi3ykaKxLq-7" style="edgeStyle=orthogonalEdgeStyle;rounded=0;orthogonalLoop=1;jettySize=auto;html=1;" edge="1" parent="1" source="cD8kugt5LJVi3ykaKxLq-6" target="cD8kugt5LJVi3ykaKxLq-1">
          <mxGeometry relative="1" as="geometry">
            <mxPoint x="370" y="645" as="sourcePoint" />
            <mxPoint x="345" y="230" as="targetPoint" />
          </mxGeometry>
        </mxCell>
        <mxCell id="cD8kugt5LJVi3ykaKxLq-8" value="End" style="rounded=1;whiteSpace=wrap;html=1;fontSize=12;glass=0;strokeWidth=1;shadow=0;" vertex="1" parent="1">
          <mxGeometry x="490" y="650" width="120" height="40" as="geometry" />
        </mxCell>
        <UserObject label="pos &lt; text.length() &amp;&amp; !Character.isDigit(text.charAt(pos)" link="pos &lt; text.length() &amp;&amp; !Character.isDigit(text.charAt(pos)" id="cD8kugt5LJVi3ykaKxLq-9">
          <mxCell style="rhombus;whiteSpace=wrap;html=1;shadow=0;fontFamily=Helvetica;fontSize=12;align=center;strokeWidth=1;spacing=6;spacingTop=-4;" vertex="1" parent="1">
            <mxGeometry x="110" y="410" width="290" height="50" as="geometry" />
          </mxCell>
        </UserObject>
        <UserObject label="pos &lt; text.length() &amp;&amp; Character.isDigit(text.charAt(pos)" link="pos &lt; text.length() &amp;&amp; Character.isDigit(text.charAt(pos)" id="cD8kugt5LJVi3ykaKxLq-10">
          <mxCell style="rhombus;whiteSpace=wrap;html=1;shadow=0;fontFamily=Helvetica;fontSize=12;align=center;strokeWidth=1;spacing=6;spacingTop=-4;" vertex="1" parent="1">
            <mxGeometry x="90" y="560" width="290" height="50" as="geometry" />
          </mxCell>
        </UserObject>
        <UserObject label="pos+1 &lt; text.length() &amp;&amp; text.charAt(pos) == &#39;.&#39; &amp;&amp; Character.isDigit(text.charAt(pos+1))" link="pos+1 &lt; text.length() &amp;&amp; text.charAt(pos) == &#39;.&#39; &amp;&amp; Character.isDigit(text.charAt(pos+1))" id="cD8kugt5LJVi3ykaKxLq-11">
          <mxCell style="rhombus;whiteSpace=wrap;html=1;shadow=0;fontFamily=Helvetica;fontSize=12;align=center;strokeWidth=1;spacing=6;spacingTop=-4;" vertex="1" parent="1">
            <mxGeometry x="55" y="720" width="400" height="50" as="geometry" />
          </mxCell>
        </UserObject>
        <UserObject label="pos &lt; text.length() &amp;&amp; Character.isDigit(text.charAt(pos))" link="pos &lt; text.length() &amp;&amp; Character.isDigit(text.charAt(pos))" id="cD8kugt5LJVi3ykaKxLq-12">
          <mxCell style="rhombus;whiteSpace=wrap;html=1;shadow=0;fontFamily=Helvetica;fontSize=12;align=center;strokeWidth=1;spacing=6;spacingTop=-4;" vertex="1" parent="1">
            <mxGeometry x="120" y="850" width="270" height="50" as="geometry" />
          </mxCell>
        </UserObject>
        <UserObject label="start == pos" link="pos &lt; text.length() &amp;&amp; Character.isDigit(text.charAt(pos))" id="cD8kugt5LJVi3ykaKxLq-13">
          <mxCell style="rhombus;whiteSpace=wrap;html=1;shadow=0;fontFamily=Helvetica;fontSize=12;align=center;strokeWidth=1;spacing=6;spacingTop=-4;" vertex="1" parent="1">
            <mxGeometry x="50" y="940" width="180" height="50" as="geometry" />
          </mxCell>
        </UserObject>
        <mxCell id="cD8kugt5LJVi3ykaKxLq-14" value="pos++" style="rounded=1;whiteSpace=wrap;html=1;fontSize=12;glass=0;strokeWidth=1;shadow=0;" vertex="1" parent="1">
          <mxGeometry x="370" y="530" width="66" height="30" as="geometry" />
        </mxCell>
        <mxCell id="cD8kugt5LJVi3ykaKxLq-18" value="pos++" style="rounded=1;whiteSpace=wrap;html=1;fontSize=12;glass=0;strokeWidth=1;shadow=0;" vertex="1" parent="1">
          <mxGeometry x="360" y="940" width="66" height="30" as="geometry" />
        </mxCell>
        <mxCell id="cD8kugt5LJVi3ykaKxLq-19" value="pos++" style="rounded=1;whiteSpace=wrap;html=1;fontSize=12;glass=0;strokeWidth=1;shadow=0;" vertex="1" parent="1">
          <mxGeometry x="381" y="790" width="66" height="30" as="geometry" />
        </mxCell>
        <mxCell id="cD8kugt5LJVi3ykaKxLq-20" value="pos++" style="rounded=1;whiteSpace=wrap;html=1;fontSize=12;glass=0;strokeWidth=1;shadow=0;" vertex="1" parent="1">
          <mxGeometry x="348" y="640" width="66" height="30" as="geometry" />
        </mxCell>
        <mxCell id="cD8kugt5LJVi3ykaKxLq-22" style="edgeStyle=orthogonalEdgeStyle;rounded=0;orthogonalLoop=1;jettySize=auto;html=1;endArrow=block;endFill=0;entryX=0.5;entryY=0;entryDx=0;entryDy=0;exitX=1;exitY=0.5;exitDx=0;exitDy=0;" edge="1" parent="1" source="cD8kugt5LJVi3ykaKxLq-9" target="cD8kugt5LJVi3ykaKxLq-14">
          <mxGeometry relative="1" as="geometry">
            <Array as="points">
              <mxPoint x="403" y="435" />
            </Array>
            <mxPoint x="560" y="660" as="targetPoint" />
            <mxPoint x="410" y="345" as="sourcePoint" />
          </mxGeometry>
        </mxCell>
        <mxCell id="cD8kugt5LJVi3ykaKxLq-23" value="true" style="edgeLabel;html=1;align=center;verticalAlign=middle;resizable=0;points=[];fontSize=15;" vertex="1" connectable="0" parent="cD8kugt5LJVi3ykaKxLq-22">
          <mxGeometry x="0.1592" y="3" relative="1" as="geometry">
            <mxPoint as="offset" />
          </mxGeometry>
        </mxCell>
        <mxCell id="cD8kugt5LJVi3ykaKxLq-24" style="edgeStyle=orthogonalEdgeStyle;rounded=0;orthogonalLoop=1;jettySize=auto;html=1;endArrow=block;endFill=0;fontSize=14;entryX=0.163;entryY=0.329;entryDx=0;entryDy=0;exitX=0;exitY=0.5;exitDx=0;exitDy=0;entryPerimeter=0;" edge="1" parent="1" source="cD8kugt5LJVi3ykaKxLq-9" target="cD8kugt5LJVi3ykaKxLq-10">
          <mxGeometry relative="1" as="geometry">
            <mxPoint x="90" y="540" as="targetPoint" />
            <Array as="points">
              <mxPoint x="110" y="460" />
              <mxPoint x="91" y="460" />
              <mxPoint x="91" y="510" />
              <mxPoint x="90" y="510" />
              <mxPoint x="90" y="570" />
              <mxPoint x="137" y="570" />
            </Array>
            <mxPoint x="136" y="460" as="sourcePoint" />
          </mxGeometry>
        </mxCell>
        <mxCell id="cD8kugt5LJVi3ykaKxLq-25" value="false" style="edgeLabel;html=1;align=center;verticalAlign=middle;resizable=0;points=[];fontSize=15;" vertex="1" connectable="0" parent="cD8kugt5LJVi3ykaKxLq-24">
          <mxGeometry x="-0.0475" y="2" relative="1" as="geometry">
            <mxPoint as="offset" />
          </mxGeometry>
        </mxCell>
        <mxCell id="cD8kugt5LJVi3ykaKxLq-26" style="edgeStyle=orthogonalEdgeStyle;rounded=0;orthogonalLoop=1;jettySize=auto;html=1;exitX=0.5;exitY=1;exitDx=0;exitDy=0;entryX=1;entryY=0.5;entryDx=0;entryDy=0;" edge="1" parent="1" source="cD8kugt5LJVi3ykaKxLq-14" target="cD8kugt5LJVi3ykaKxLq-10">
          <mxGeometry relative="1" as="geometry">
            <mxPoint x="355" y="280" as="sourcePoint" />
            <mxPoint x="355" y="320" as="targetPoint" />
          </mxGeometry>
        </mxCell>
        <mxCell id="cD8kugt5LJVi3ykaKxLq-27" style="edgeStyle=orthogonalEdgeStyle;rounded=0;orthogonalLoop=1;jettySize=auto;html=1;endArrow=block;endFill=0;exitX=1.001;exitY=0.543;exitDx=0;exitDy=0;exitPerimeter=0;" edge="1" parent="1" source="cD8kugt5LJVi3ykaKxLq-10" target="cD8kugt5LJVi3ykaKxLq-20">
          <mxGeometry relative="1" as="geometry">
            <Array as="points">
              <mxPoint x="380" y="648" />
              <mxPoint x="381" y="648" />
            </Array>
            <mxPoint x="393" y="705" as="targetPoint" />
            <mxPoint x="390" y="630" as="sourcePoint" />
          </mxGeometry>
        </mxCell>
        <mxCell id="cD8kugt5LJVi3ykaKxLq-28" value="true" style="edgeLabel;html=1;align=center;verticalAlign=middle;resizable=0;points=[];fontSize=15;" vertex="1" connectable="0" parent="cD8kugt5LJVi3ykaKxLq-27">
          <mxGeometry x="0.1592" y="3" relative="1" as="geometry">
            <mxPoint as="offset" />
          </mxGeometry>
        </mxCell>
        <mxCell id="cD8kugt5LJVi3ykaKxLq-29" style="edgeStyle=orthogonalEdgeStyle;rounded=0;orthogonalLoop=1;jettySize=auto;html=1;endArrow=block;endFill=0;fontSize=14;entryX=0.163;entryY=0.407;entryDx=0;entryDy=0;entryPerimeter=0;" edge="1" parent="1" source="cD8kugt5LJVi3ykaKxLq-10" target="cD8kugt5LJVi3ykaKxLq-11">
          <mxGeometry relative="1" as="geometry">
            <mxPoint x="152" y="740.5" as="targetPoint" />
            <Array as="points">
              <mxPoint x="106" y="675" />
              <mxPoint x="105" y="675" />
              <mxPoint x="105" y="670" />
              <mxPoint x="121" y="670" />
              <mxPoint x="121" y="710" />
              <mxPoint x="120" y="710" />
            </Array>
            <mxPoint x="125" y="599.5" as="sourcePoint" />
          </mxGeometry>
        </mxCell>
        <mxCell id="cD8kugt5LJVi3ykaKxLq-30" value="false" style="edgeLabel;html=1;align=center;verticalAlign=middle;resizable=0;points=[];fontSize=15;" vertex="1" connectable="0" parent="cD8kugt5LJVi3ykaKxLq-29">
          <mxGeometry x="-0.0475" y="2" relative="1" as="geometry">
            <mxPoint as="offset" />
          </mxGeometry>
        </mxCell>
        <mxCell id="cD8kugt5LJVi3ykaKxLq-31" style="edgeStyle=orthogonalEdgeStyle;rounded=0;orthogonalLoop=1;jettySize=auto;html=1;entryX=0.823;entryY=0.328;entryDx=0;entryDy=0;entryPerimeter=0;" edge="1" parent="1" source="cD8kugt5LJVi3ykaKxLq-20" target="cD8kugt5LJVi3ykaKxLq-11">
          <mxGeometry relative="1" as="geometry">
            <mxPoint x="405" y="695" as="sourcePoint" />
            <mxPoint x="382" y="720" as="targetPoint" />
          </mxGeometry>
        </mxCell>
        <mxCell id="cD8kugt5LJVi3ykaKxLq-32" style="edgeStyle=orthogonalEdgeStyle;rounded=0;orthogonalLoop=1;jettySize=auto;html=1;endArrow=block;endFill=0;exitX=1.001;exitY=0.543;exitDx=0;exitDy=0;exitPerimeter=0;entryX=0.75;entryY=0;entryDx=0;entryDy=0;" edge="1" parent="1" target="cD8kugt5LJVi3ykaKxLq-19">
          <mxGeometry relative="1" as="geometry">
            <Array as="points">
              <mxPoint x="430" y="790" />
            </Array>
            <mxPoint x="430.03" y="803" as="targetPoint" />
            <mxPoint x="430.03" y="750" as="sourcePoint" />
          </mxGeometry>
        </mxCell>
        <mxCell id="cD8kugt5LJVi3ykaKxLq-33" value="true" style="edgeLabel;html=1;align=center;verticalAlign=middle;resizable=0;points=[];fontSize=15;" vertex="1" connectable="0" parent="cD8kugt5LJVi3ykaKxLq-32">
          <mxGeometry x="0.1592" y="3" relative="1" as="geometry">
            <mxPoint as="offset" />
          </mxGeometry>
        </mxCell>
        <mxCell id="cD8kugt5LJVi3ykaKxLq-34" style="edgeStyle=orthogonalEdgeStyle;rounded=0;orthogonalLoop=1;jettySize=auto;html=1;exitX=0;exitY=1;exitDx=0;exitDy=0;entryX=0.954;entryY=0.51;entryDx=0;entryDy=0;entryPerimeter=0;" edge="1" parent="1" source="cD8kugt5LJVi3ykaKxLq-19" target="cD8kugt5LJVi3ykaKxLq-12">
          <mxGeometry relative="1" as="geometry">
            <mxPoint x="405" y="840" as="sourcePoint" />
            <mxPoint x="382" y="865" as="targetPoint" />
          </mxGeometry>
        </mxCell>
        <mxCell id="cD8kugt5LJVi3ykaKxLq-35" style="edgeStyle=orthogonalEdgeStyle;rounded=0;orthogonalLoop=1;jettySize=auto;html=1;endArrow=block;endFill=0;fontSize=14;entryX=0;entryY=0.5;entryDx=0;entryDy=0;" edge="1" parent="1" source="cD8kugt5LJVi3ykaKxLq-11" target="cD8kugt5LJVi3ykaKxLq-13">
          <mxGeometry relative="1" as="geometry">
            <mxPoint x="105" y="942" as="targetPoint" />
            <Array as="points">
              <mxPoint x="91" y="877" />
              <mxPoint x="90" y="877" />
              <mxPoint x="90" y="872" />
              <mxPoint x="50" y="872" />
            </Array>
            <mxPoint x="91" y="790" as="sourcePoint" />
          </mxGeometry>
        </mxCell>
        <mxCell id="cD8kugt5LJVi3ykaKxLq-36" value="false" style="edgeLabel;html=1;align=center;verticalAlign=middle;resizable=0;points=[];fontSize=15;" vertex="1" connectable="0" parent="cD8kugt5LJVi3ykaKxLq-35">
          <mxGeometry x="-0.0475" y="2" relative="1" as="geometry">
            <mxPoint as="offset" />
          </mxGeometry>
        </mxCell>
        <mxCell id="cD8kugt5LJVi3ykaKxLq-37" value="number = Double.parseDouble(text.substring(start, pos))" style="rounded=1;whiteSpace=wrap;html=1;fontSize=12;glass=0;strokeWidth=1;shadow=0;" vertex="1" parent="1">
          <mxGeometry x="520" y="930" width="230" height="50" as="geometry" />
        </mxCell>
        <mxCell id="cD8kugt5LJVi3ykaKxLq-38" style="edgeStyle=orthogonalEdgeStyle;rounded=0;orthogonalLoop=1;jettySize=auto;html=1;endArrow=block;endFill=0;exitX=0.957;exitY=0.613;exitDx=0;exitDy=0;exitPerimeter=0;entryX=0.25;entryY=0;entryDx=0;entryDy=0;" edge="1" parent="1" source="cD8kugt5LJVi3ykaKxLq-12" target="cD8kugt5LJVi3ykaKxLq-18">
          <mxGeometry relative="1" as="geometry">
            <Array as="points">
              <mxPoint x="378" y="920" />
              <mxPoint x="380" y="920" />
              <mxPoint x="380" y="930" />
              <mxPoint x="377" y="930" />
            </Array>
            <mxPoint x="380" y="920" as="targetPoint" />
            <mxPoint x="412.05999999999995" y="879.97" as="sourcePoint" />
          </mxGeometry>
        </mxCell>
        <mxCell id="cD8kugt5LJVi3ykaKxLq-39" value="true" style="edgeLabel;html=1;align=center;verticalAlign=middle;resizable=0;points=[];fontSize=15;" vertex="1" connectable="0" parent="cD8kugt5LJVi3ykaKxLq-38">
          <mxGeometry x="0.1592" y="3" relative="1" as="geometry">
            <mxPoint as="offset" />
          </mxGeometry>
        </mxCell>
        <mxCell id="cD8kugt5LJVi3ykaKxLq-40" style="edgeStyle=orthogonalEdgeStyle;rounded=0;orthogonalLoop=1;jettySize=auto;html=1;exitX=0;exitY=0.5;exitDx=0;exitDy=0;entryX=0.839;entryY=0.319;entryDx=0;entryDy=0;entryPerimeter=0;" edge="1" parent="1" source="cD8kugt5LJVi3ykaKxLq-18" target="cD8kugt5LJVi3ykaKxLq-13">
          <mxGeometry relative="1" as="geometry">
            <mxPoint x="285" y="954" as="sourcePoint" />
            <mxPoint x="282" y="1010" as="targetPoint" />
          </mxGeometry>
        </mxCell>
        <mxCell id="cD8kugt5LJVi3ykaKxLq-41" style="edgeStyle=orthogonalEdgeStyle;rounded=0;orthogonalLoop=1;jettySize=auto;html=1;endArrow=block;endFill=0;fontSize=14;entryX=0.5;entryY=0;entryDx=0;entryDy=0;exitX=0.097;exitY=0.644;exitDx=0;exitDy=0;exitPerimeter=0;" edge="1" parent="1" source="cD8kugt5LJVi3ykaKxLq-12" target="cD8kugt5LJVi3ykaKxLq-13">
          <mxGeometry relative="1" as="geometry">
            <mxPoint x="60" y="975" as="targetPoint" />
            <Array as="points">
              <mxPoint x="146" y="890" />
              <mxPoint x="140" y="890" />
            </Array>
            <mxPoint x="101" y="760" as="sourcePoint" />
          </mxGeometry>
        </mxCell>
        <mxCell id="cD8kugt5LJVi3ykaKxLq-42" value="false" style="edgeLabel;html=1;align=center;verticalAlign=middle;resizable=0;points=[];fontSize=15;" vertex="1" connectable="0" parent="cD8kugt5LJVi3ykaKxLq-41">
          <mxGeometry x="-0.0475" y="2" relative="1" as="geometry">
            <mxPoint x="-2" y="4" as="offset" />
          </mxGeometry>
        </mxCell>
        <mxCell id="cD8kugt5LJVi3ykaKxLq-44" style="edgeStyle=orthogonalEdgeStyle;rounded=0;orthogonalLoop=1;jettySize=auto;html=1;" edge="1" parent="1" source="cD8kugt5LJVi3ykaKxLq-37" target="cD8kugt5LJVi3ykaKxLq-8">
          <mxGeometry relative="1" as="geometry">
            <mxPoint x="195" y="988" as="sourcePoint" />
            <mxPoint x="558" y="968" as="targetPoint" />
            <Array as="points">
              <mxPoint x="550" y="850" />
              <mxPoint x="550" y="850" />
            </Array>
          </mxGeometry>
        </mxCell>
        <mxCell id="cD8kugt5LJVi3ykaKxLq-45" style="edgeStyle=orthogonalEdgeStyle;rounded=0;orthogonalLoop=1;jettySize=auto;html=1;endArrow=block;endFill=0;fontSize=14;entryX=0.478;entryY=0.988;entryDx=0;entryDy=0;entryPerimeter=0;exitX=0.5;exitY=1;exitDx=0;exitDy=0;" edge="1" parent="1" source="cD8kugt5LJVi3ykaKxLq-13" target="cD8kugt5LJVi3ykaKxLq-37">
          <mxGeometry relative="1" as="geometry">
            <mxPoint x="251.98000000000002" y="1068" as="targetPoint" />
            <Array as="points">
              <mxPoint x="140" y="1020" />
              <mxPoint x="630" y="1020" />
            </Array>
            <mxPoint x="257.98" y="1010" as="sourcePoint" />
          </mxGeometry>
        </mxCell>
        <mxCell id="cD8kugt5LJVi3ykaKxLq-46" value="false" style="edgeLabel;html=1;align=center;verticalAlign=middle;resizable=0;points=[];fontSize=15;" vertex="1" connectable="0" parent="cD8kugt5LJVi3ykaKxLq-45">
          <mxGeometry x="-0.0475" y="2" relative="1" as="geometry">
            <mxPoint x="-2" y="4" as="offset" />
          </mxGeometry>
        </mxCell>
        <mxCell id="cD8kugt5LJVi3ykaKxLq-47" value="return 0" style="rounded=1;whiteSpace=wrap;html=1;fontSize=12;glass=0;strokeWidth=1;shadow=0;" vertex="1" parent="1">
          <mxGeometry x="520" y="520" width="66" height="30" as="geometry" />
        </mxCell>
        <mxCell id="cD8kugt5LJVi3ykaKxLq-48" style="edgeStyle=orthogonalEdgeStyle;rounded=0;orthogonalLoop=1;jettySize=auto;html=1;exitX=0.5;exitY=1;exitDx=0;exitDy=0;entryX=0.5;entryY=0;entryDx=0;entryDy=0;" edge="1" parent="1" source="cD8kugt5LJVi3ykaKxLq-47" target="cD8kugt5LJVi3ykaKxLq-8">
          <mxGeometry relative="1" as="geometry">
            <mxPoint x="413" y="570" as="sourcePoint" />
            <mxPoint x="390" y="595" as="targetPoint" />
          </mxGeometry>
        </mxCell>
        <mxCell id="cD8kugt5LJVi3ykaKxLq-49" value="return 0" style="rounded=1;whiteSpace=wrap;html=1;fontSize=12;glass=0;strokeWidth=1;shadow=0;" vertex="1" parent="1">
          <mxGeometry x="436" y="940" width="66" height="30" as="geometry" />
        </mxCell>
        <mxCell id="cD8kugt5LJVi3ykaKxLq-52" style="edgeStyle=orthogonalEdgeStyle;rounded=0;orthogonalLoop=1;jettySize=auto;html=1;endArrow=block;endFill=0;exitX=0.944;exitY=0.6;exitDx=0;exitDy=0;exitPerimeter=0;entryX=0.5;entryY=1;entryDx=0;entryDy=0;" edge="1" parent="1" source="cD8kugt5LJVi3ykaKxLq-13" target="cD8kugt5LJVi3ykaKxLq-49">
          <mxGeometry relative="1" as="geometry">
            <Array as="points">
              <mxPoint x="220" y="1000" />
              <mxPoint x="469" y="1000" />
            </Array>
            <mxPoint x="540" y="1040" as="targetPoint" />
            <mxPoint x="311" y="970" as="sourcePoint" />
          </mxGeometry>
        </mxCell>
        <mxCell id="cD8kugt5LJVi3ykaKxLq-53" value="true" style="edgeLabel;html=1;align=center;verticalAlign=middle;resizable=0;points=[];fontSize=15;" vertex="1" connectable="0" parent="cD8kugt5LJVi3ykaKxLq-52">
          <mxGeometry x="0.1592" y="3" relative="1" as="geometry">
            <mxPoint as="offset" />
          </mxGeometry>
        </mxCell>
        <mxCell id="cD8kugt5LJVi3ykaKxLq-54" style="edgeStyle=orthogonalEdgeStyle;rounded=0;orthogonalLoop=1;jettySize=auto;html=1;exitX=0.5;exitY=0;exitDx=0;exitDy=0;" edge="1" parent="1" source="cD8kugt5LJVi3ykaKxLq-49">
          <mxGeometry relative="1" as="geometry">
            <mxPoint x="560" y="940" as="sourcePoint" />
            <mxPoint x="500" y="690" as="targetPoint" />
            <Array as="points">
              <mxPoint x="469" y="870" />
              <mxPoint x="500" y="870" />
              <mxPoint x="500" y="690" />
            </Array>
          </mxGeometry>
        </mxCell>
      </root>
    </mxGraphModel>
  </diagram>
</mxfile>
